0
SECTION
2
HEADER
9
$INSUNITS
70
4
9
$ACADVER
1
AC1014
9
$HANDSEED
5
FFFF
0
ENDSEC
0
SECTION
2
TABLES
0
TABLE
2
VPORT
5
8
100
AcDbSymbolTable
0
ENDTAB
0
TABLE
2
LTYPE
5
5
100
AcDbSymbolTable
0
LTYPE
5
14
100
AcDbSymbolTableRecord
100
AcDbLinetypeTableRecord
2
BYBLOCK
70
0
0
LTYPE
5
15
100
AcDbSymbolTableRecord
100
AcDbLinetypeTableRecord
2
BYLAYER
70
0
0
ENDTAB
0
TABLE
2
LAYER
5
2
100
AcDbSymbolTable
70
2
0
LAYER
5
50
100
AcDbSymbolTableRecord
100
AcDbLayerTableRecord
2
0
70
0
6
CONTINUOUS
0
ENDTAB
0
TABLE
2
STYLE
5
3
100
AcDbSymbolTable
70
1
0
STYLE
5
11
100
AcDbSymbolTableRecord
100
AcDbTextStyleTableRecord
2
STANDARD
70
0
0
ENDTAB
0
TABLE
2
VIEW
5
6
100
AcDbSymbolTable
70
0
0
ENDTAB
0
TABLE
2
UCS
5
7
100
AcDbSymbolTable
70
0
0
ENDTAB
0
TABLE
2
APPID
5
9
100
AcDbSymbolTable
70
2
0
APPID
5
12
100
AcDbSymbolTableRecord
100
AcDbRegAppTableRecord
2
ACAD
70
0
0
ENDTAB
0
TABLE
2
DIMSTYLE
5
A
100
AcDbSymbolTable
70
1
0
ENDTAB
0
TABLE
2
BLOCK_RECORD
5
1
100
AcDbSymbolTable
70
1
0
BLOCK_RECORD
5
1F
100
AcDbSymbolTableRecord
100
AcDbBlockTableRecord
2
*MODEL_SPACE
0
BLOCK_RECORD
5
1B
100
AcDbSymbolTableRecord
100
AcDbBlockTableRecord
2
*PAPER_SPACE
0
ENDTAB
0
ENDSEC
0
SECTION
2
BLOCKS
0
BLOCK
5
20
100
AcDbEntity
100
AcDbBlockBegin
2
*MODEL_SPACE
0
ENDBLK
5
21
100
AcDbEntity
100
AcDbBlockEnd
0
BLOCK
5
1C
100
AcDbEntity
100
AcDbBlockBegin
2
*PAPER_SPACE
0
ENDBLK
5
1D
100
AcDbEntity
100
AcDbBlockEnd
0
ENDSEC
0
SECTION
2
ENTITIES
0
SPLINE
5
100
100
AcDbEntity
8
0
100
AcDbSpline
70
0
71
3
72
14
73
10
74
0
42
0.000000001
43
0.0000000001
44
0.0000000001
40
-2.3634069625439027
40
-2.3634069625439027
40
-2.3634069625439027
40
-2.3634069625439027
40
-1.7739319495550405
40
-1.7739319495550405
40
-1.1952835786332829
40
-1.1952835786332829
40
-0.5936688034320261
40
-0.5936688034320261
40
-0
40
-0
40
-0
40
-0
10
46.215210387493556
20
-134.91507172045607
30
1.5543122344752192e-14
10
46.215210387493556
20
-132.95015226585627
30
1.7763568394002505e-14
10
45.828339964455402
20
-131.00427162104506
30
2.2204460492503131e-14
10
44.340377930543625
20
-127.40591188937103
30
2.4424906541753444e-14
10
43.266313399849054
20
-125.7820063034614
30
3.1086244689504383e-14
10
40.50931920856187
20
-122.9751620249971
30
3.5527136788005009e-14
10
38.831347451087467
20
-121.84021094886819
30
3.1086244689504383e-14
10
35.153554179606445
20
-120.30746507300623
30
3.7747582837255322e-14
10
33.194106398933656
20
-119.91507172045608
30
3.9968028886505635e-14
10
31.21521038749357
20
-119.91507172045608
30
3.9968028886505635e-14
0
LINE
5
101
100
AcDbEntity
8
0
100
AcDbLine
10
31.21521038749357
20
-119.91507172045608
30
3.9968028886505635e-14
11
-58.784789612504426
21
-119.91507172045608
31
6.2172489379008766e-14
0
SPLINE
5
102
100
AcDbEntity
8
0
100
AcDbSpline
70
0
71
3
72
14
73
10
74
0
42
0.000000001
43
0.0000000001
44
0.0000000001
40
-2.3634069625437975
40
-2.3634069625437975
40
-2.3634069625437975
40
-2.3634069625437975
40
-1.7739319495549806
40
-1.7739319495549806
40
-1.1952835786332852
40
-1.1952835786332852
40
-0.5936688034320331
40
-0.5936688034320331
40
-0
40
-0
40
-0
40
-0
10
-58.784789612504433
20
-119.91507172045608
30
5.9952043329758453e-14
10
-60.74970906710422
20
-119.91507172045608
30
5.9952043329758453e-14
10
-62.695589711915396
20
-120.3019421434942
30
7.9936057773011271e-14
10
-66.293949443589526
20
-121.78990417740602
30
7.7715611723760958e-14
10
-67.917855029499194
20
-122.86396870810063
30
7.5495165674510645e-14
10
-70.724699307963576
20
-125.62096289938792
30
7.3274719625260332e-14
10
-71.859650384092348
20
-127.29893465686229
30
6.8833827526759706e-14
10
-73.392396259954253
20
-130.97672792834317
30
6.8833827526759706e-14
10
-73.784789612504426
20
-132.93617570901597
30
6.4392935428259079e-14
10
-73.784789612504426
20
-134.91507172045607
30
5.9952043329758453e-14
0
LINE
5
103
100
AcDbEntity
8
0
100
AcDbLine
10
-73.784789612504426
20
-134.91507172045607
30
5.9952043329758453e-14
11
-73.784789612504426
21
-224.91507172044345
31
-2.2204460492503131e-14
0
SPLINE
5
104
100
AcDbEntity
8
0
100
AcDbSpline
70
0
71
3
72
14
73
10
74
0
42
0.000000001
43
0.0000000001
44
0.0000000001
40
-2.3634069625439453
40
-2.3634069625439453
40
-2.3634069625439453
40
-2.3634069625439453
40
-1.7739319495550503
40
-1.7739319495550503
40
-1.1952835786332789
40
-1.1952835786332789
40
-0.59366880343203277
40
-0.59366880343203277
40
-0
40
-0
40
-0
40
-0
10
-73.784789612504426
20
-224.91507172044345
30
-2.6645352591003757e-14
10
-73.784789612504426
20
-226.87999117504322
30
-2.886579864025407e-14
10
-73.397919189466307
20
-228.8258718198544
30
6.6613381477509392e-15
10
-71.909957155554537
20
-232.42423155152841
30
4.4408920985006262e-15
10
-70.835892624860008
20
-234.04813713743803
30
-2.2204460492503131e-15
10
-68.078898433572803
20
-236.85498141590233
30
-2.2204460492503131e-15
10
-66.400926676098379
20
-237.9899324920313
30
-6.6613381477509392e-15
10
-62.72313340461735
20
-239.52267836789329
30
-6.6613381477509392e-15
10
-60.763685623944561
20
-239.91507172044345
30
-8.8817841970012523e-15
10
-58.784789612504447
20
-239.91507172044345
30
-8.8817841970012523e-15
0
LINE
5
105
100
AcDbEntity
8
0
100
AcDbLine
10
-58.784789612504447
20
-239.91507172044345
30
-8.8817841970012523e-15
11
31.215210387493578
21
-239.91507172044345
31
-4.4408920985006262e-14
0
SPLINE
5
106
100
AcDbEntity
8
0
100
AcDbSpline
70
0
71
3
72
14
73
10
74
0
42
0.000000001
43
0.0000000001
44
0.0000000001
40
-2.3634069625437846
40
-2.3634069625437846
40
-2.3634069625437846
40
-2.3634069625437846
40
-1.7739319495550303
40
-1.7739319495550303
40
-1.1952835786333171
40
-1.1952835786333171
40
-0.59366880343203332
40
-0.59366880343203332
40
-0
40
-0
40
-0
40
-0
10
31.21521038749357
20
-239.91507172044345
30
-4.4408920985006262e-14
10
33.180129842093436
20
-239.91507172044345
30
-4.4408920985006262e-14
10
35.126010486904669
20
-239.52820129740525
30
-5.5511151231257827e-14
10
38.724370218578755
20
-238.04023926349342
30
-5.5511151231257827e-14
10
40.348275804488466
20
-236.96617473279869
30
-5.1070259132757201e-14
10
43.155120082952614
20
-234.20918054151161
30
-4.8849813083506888e-14
10
44.290071159081464
20
-232.53120878403729
30
-4.8849813083506888e-14
10
45.82281703494337
20
-228.85341551255635
30
-4.2188474935755949e-14
10
46.215210387493542
20
-226.89396773188355
30
-4.2188474935755949e-14
10
46.215210387493542
20
-224.91507172044345
30
-4.2188474935755949e-14
0
LINE
5
107
100
AcDbEntity
8
0
100
AcDbLine
10
46.215210387493542
20
-224.91507172044345
30
-4.2188474935755949e-14
11
46.215210387493556
21
-134.91507172045607
31
1.5543122344752192e-14
0
CIRCLE
5
108
100
AcDbEntity
8
0
100
AcDbCircle
10
63.784789612504476
20
-229.91507172044339
30
-3.3958488257152836e-13
40
2.0500000000000096
210
1.8079519004110488e-15
220
1.577721810442025e-30
230
-1
0
CIRCLE
5
109
100
AcDbEntity
8
0
100
AcDbCircle
10
63.784789612504468
20
-129.91507172044342
30
2.4217198233205387e-13
40
2.0499999999999918
210
1.8079519004110496e-15
220
7.8886090522101251e-31
230
-1
0
CIRCLE
5
110
100
AcDbEntity
8
0
100
AcDbCircle
10
-36.215210387495389
20
-229.91507172044339
30
-3.1644136202719599e-13
40
2.0500000000000096
210
1.8079519004110488e-15
220
1.577721810442025e-30
230
-1
0
CIRCLE
5
111
100
AcDbEntity
8
0
100
AcDbCircle
10
-36.215210387495404
20
-129.91507172044342
30
2.6531550287638634e-13
40
2.0500000000000007
210
1.8079519004110496e-15
220
7.8886090522101251e-31
230
-1
0
LWPOLYLINE
5
112
100
AcDbEntity
8
0
100
AcDbPolyline
90
8
70
1
43
0.0
10
8.3652103874952228
20
-194.47928528281764
10
8.3652103874959334
20
-165.35085815807139
10
0.77942394986923902
20
-157.76507172044433
10
-28.349003174876938
20
-157.76507172044364
10
-35.934789612504019
20
-165.35085815807034
10
-35.934789612504716
20
-194.47928528281653
10
-28.349003174878007
20
-202.06507172044365
10
0.77942394986815433
20
-202.06507172044434
0
CIRCLE
5
113
100
AcDbEntity
8
0
100
AcDbCircle
10
-13.784789612505445
20
-179.91507172044982
30
-1.1102230246251565e-15
40
51.999999999999943
210
-7.8839577497029276e-31
220
9.0689192547516674e-61
230
1
0
LINE
5
114
100
AcDbEntity
8
0
100
AcDbLine
10
-22.784789612504923
20
-209.06507172044397
30
-2.2191678570148452e-13
11
-4.7847896125049294
21
-195.06507172044397
31
-8.4482874189216994e-14
0
LINE
5
115
100
AcDbEntity
8
0
100
AcDbLine
10
-4.7847896125049294
20
-209.06507172044397
30
-2.2191678570148452e-13
11
-22.784789612504923
21
-195.06507172044397
31
-2.2191678570148452e-13
0
LWPOLYLINE
5
116
100
AcDbEntity
8
0
100
AcDbPolyline
90
4
70
1
43
0.0
10
17.365210387495576
20
-173.41507172044453
10
-0.63478961250442056
20
-173.41507172044453
10
-0.63478961250442056
20
-186.41507172044447
10
17.365210387495576
20
-186.41507172044447
0
LINE
5
117
100
AcDbEntity
8
0
100
AcDbLine
10
17.365210387495576
20
-173.41507172044453
30
8.786312330450237e-13
11
-0.63478961250442056
21
-186.41507172044447
31
-1.1636826636706396e-12
0
LINE
5
118
100
AcDbEntity
8
0
100
AcDbLine
10
-0.63478961250442056
20
-173.41507172044453
30
8.786312330450237e-13
11
17.365210387495576
21
-186.41507172044447
31
8.786312330450237e-13
0
LWPOLYLINE
5
119
100
AcDbEntity
8
0
100
AcDbPolyline
90
4
70
1
43
0.0
10
-13.784789612504927
20
-202.06507172044397
10
-22.784789612504927
20
-202.06507172044397
10
-22.784789612504927
20
-210.06507172044397
10
-13.784789612504927
20
-210.06507172044397
0
LWPOLYLINE
5
120
100
AcDbEntity
8
0
100
AcDbPolyline
90
4
70
1
43
0.0
10
-13.784789612504927
20
-202.06507172044397
10
-4.7847896125049258
20
-202.06507172044397
10
-4.7847896125049258
20
-210.06507172044397
10
-13.784789612504927
20
-210.06507172044397
0
ENDSEC
0
SECTION
2
OBJECTS
0
DICTIONARY
5
C
100
AcDbDictionary
3
ACAD_GROUP
350
D
3
ACAD_MLINESTYLE
350
17
0
DICTIONARY
5
D
100
AcDbDictionary
0
DICTIONARY
5
1A
330
C
100
AcDbDictionary
0
DICTIONARY
5
17
100
AcDbDictionary
0
ENDSEC
0
EOF
